<svg width="134" height="146" viewBox="0 0 134 146" fill="none" xmlns="http://www.w3.org/2000/svg">
<g id="logo">
<path id="arrow" d="M133 14.5L118 1L124 14.5L118 28L133 14.5Z" fill="white" stroke="white" stroke-width="0.5"/>
<g id="k">
<path d="M1 145V21H18.5V87C35.2367 49.9106 72 19 122 14.5C63 39 28 81 22.5 145H1Z" fill="white"/>
<path d="M46.5 82.5C48.5 79.5 59.5 65.5 59.5 65.5C79.4304 105.824 94.9958 123.207 130.5 145C107.096 146.156 69.2827 114.69 55.5 95C52.1745 90.4586 49.3528 87.1839 46.5 82.5Z" fill="white"/>
<path d="M1 145V21H18.5V87C35.2367 49.9106 72 19 122 14.5C63 39 28 81 22.5 145H1Z" stroke="white" stroke-width="0.5"/>
<path d="M46.5 82.5C48.5 79.5 59.5 65.5 59.5 65.5C79.4304 105.824 94.9958 123.207 130.5 145C107.096 146.156 69.2827 114.69 55.5 95C52.1745 90.4586 49.3528 87.1839 46.5 82.5Z" stroke="white" stroke-width="0.5"/>
</g>
</g>
</svg>
